<!-- icon666.com - MILLIONS vector ICONS FREE --><svg viewBox="-82 0 512 512.003" xmlns="http://www.w3.org/2000/svg"><path d="m187.339844 504.507812h-25.765625c-22.890625 0-41.445313-18.558593-41.445313-41.445312v-10.722656h108.65625v10.722656c0 22.886719-18.554687 41.445312-41.445312 41.445312zm0 0" fill="#a1a1a7"></path><path d="m228.785156 452.332031v10.730469c0 22.886719-18.554687 41.441406-41.441406 41.441406h-16.65625c22.886719 0 41.4375-18.554687 41.4375-41.441406v-10.730469zm0 0" fill="#929298"></path><path d="m230.398438 452.335938h-111.882813c-7.304687 0-13.226563-5.921876-13.226563-13.230469v-15.367188c0-7.308593 5.921876-13.230469 13.226563-13.230469h111.882813c7.308593 0 13.230468 5.921876 13.230468 13.230469v15.367188c0 7.308593-5.921875 13.230469-13.230468 13.230469zm0 0" fill="#7c8388"></path><path d="m230.398438 411.195312h-111.882813c-7.304687 0-13.226563-5.925781-13.226563-13.230468v-15.371094c0-7.308594 5.921876-13.230469 13.226563-13.230469h111.882813c7.308593 0 13.230468 5.921875 13.230468 13.230469v15.371094c0 7.304687-5.921875 13.230468-13.230468 13.230468zm0 0" fill="#a1a1a7"></path><path d="m243.628906 382.589844v15.375c0 7.300781-5.917968 13.226562-13.230468 13.226562h-18.050782c7.3125 0 13.226563-5.925781 13.226563-13.226562v-15.375c0-7.300782-5.914063-13.226563-13.226563-13.226563h18.050782c7.3125 0 13.230468 5.925781 13.230468 13.226563zm0 0" fill="#929298"></path><path d="m243.628906 423.734375v15.375c0 7.300781-5.917968 13.226563-13.230468 13.226563h-18.050782c7.3125 0 13.226563-5.925782 13.226563-13.226563v-15.375c0-7.300781-5.914063-13.226563-13.226563-13.226563h18.050782c7.3125 0 13.230468 5.925782 13.230468 13.226563zm0 0" fill="#6a7075"></path><path d="m341.421875 174.457031c0-92.210937-74.75-166.964843-166.964844-166.964843-92.210937 0-166.960937 74.753906-166.960937 166.964843 0 38.382813 13.980468 74.476563 38.21875 104.027344 24.144531 29.441406 65.066406 49.199219 70.042968 90.878906h117.398438c5.179688-43.386719 43.109375-57.75 68.277344-87.585937 25.3125-30.003906 39.988281-67.949219 39.988281-107.320313zm0 0" fill="#ffb541"></path><path d="m341.417969 174.460938c0 39.363281-14.671875 77.3125-39.984375 107.308593-25.171875 29.847657-63.101563 44.207031-68.277344 87.59375h-24.738281c5.171875-43.382812 43.101562-57.746093 68.277343-87.59375 25.3125-29.996093 39.984376-67.945312 39.984376-107.308593 0-88.054688-68.148438-160.179688-154.585938-166.507813 4.082031-.3125 8.203125-.460937 12.363281-.460937 92.21875 0 166.960938 74.753906 166.960938 166.96875zm0 0" fill="#ffa812"></path><path d="m131.613281 369.363281s2.859375-22.382812-21.792969-79.058593c-3.523437-8.09375-.371093-17.542969 7.289063-21.933594 9.332031-5.347656 21.242187-1.007813 24.914063 9.105468 8.355468 23.011719 18.945312 51.484376 23.171874 91.886719zm0 0" fill="#7c8388"></path><path d="m165.191406 369.363281h-13.308594c-3.898437-37.285156-13.679687-63.5625-21.382812-84.804687-2.394531-6.585938-8.582031-10.519532-15.042969-10.519532-1.582031 0-3.1875.230469-4.753906.734376 1.484375-2.589844 3.652344-4.824219 6.410156-6.398438 2.738281-1.574219 5.695313-2.308594 8.605469-2.308594 7.007812 0 13.710938 4.261719 16.308594 11.414063 8.351562 23.003906 18.941406 51.476562 23.164062 91.882812zm0 0" fill="#6a7075"></path><path d="m217.304688 369.363281s-2.859376-22.382812 21.792968-79.058593c3.519532-8.09375.367188-17.542969-7.289062-21.933594-9.332032-5.347656-21.246094-1.007813-24.917969 9.105468-8.351563 23.011719-18.945313 51.484376-23.167969 91.886719zm0 0" fill="#7c8388"></path><path d="m239.09375 290.304688c-24.648438 56.675781-21.792969 79.058593-21.792969 79.058593h-15.375s-2.855469-22.382812 21.792969-79.058593c3.523438-8.089844.371094-17.550782-7.289062-21.933594-.3125-.179688-.632813-.347656-.941407-.5 2.375-1.171875 5.023438-1.804688 7.710938-1.804688 2.90625 0 5.867187.734375 8.605469 2.308594 7.660156 4.378906 10.808593 13.839844 7.289062 21.929688zm0 0" fill="#6a7075"></path><path d="m145.285156 286.484375s30.53125-9.511719 57.941406 1.242187l-8.792968 26.800782s-7.667969 0-39.949219 0zm0 0" fill="#a1a1a7"></path><path d="m203.222656 287.726562-8.785156 26.796876s-3.191406 0-14.121094 0l9.988282-30.457032c4.300781.804688 8.644531 1.988282 12.917968 3.660156zm0 0" fill="#929298"></path><path d="m174.457031 0c-9.96875 0-19.96875.847656-29.71875 2.523438-4.078125.699218-6.816406 4.574218-6.117187 8.652343.699218 4.082031 4.578125 6.820313 8.652344 6.121094 8.914062-1.53125 18.0625-2.308594 27.183593-2.308594 87.933594 0 159.472657 71.539063 159.472657 159.472657 0 36.867187-13.574219 73.265624-38.222657 102.484374-7.566406 8.96875-16.640625 16.71875-25.417969 24.210938-18.605468 15.894531-37.804687 32.285156-43.523437 60.714844h-1.796875c.253906-2.71875.734375-6.296875 1.625-10.808594 2.171875-11.03125 7.300781-30.003906 19.375-57.765625 5.050781-11.613281.566406-25.121094-10.433594-31.429687-6.375-3.652344-13.996094-4.300782-20.898437-1.773438-6.894531 2.523438-12.285157 7.925781-14.789063 14.824219l-.574218 1.589843c-.21875.597657-.4375 1.203126-.65625 1.804688-19.351563-5.382812-38.589844-2.808594-48.574219-.71875-.132813-.363281-.265625-.726562-.394531-1.085938l-.578126-1.589843c-2.503906-6.894531-7.894531-12.300781-14.789062-14.824219-6.902344-2.527344-14.519531-1.878906-20.898438 1.773438-11 6.308593-15.484374 19.816406-10.433593 31.429687.515625 1.1875 1.019531 2.359375 1.511719 3.515625 1.621093 3.808594 6.019531 5.585938 9.828124 3.964844 3.808594-1.617188 5.585938-6.019532 3.964844-9.828125-.507812-1.195313-1.027344-2.40625-1.5625-3.632813-1.996094-4.59375-.214844-9.945312 4.144532-12.445312 2.53125-1.449219 5.550781-1.707032 8.292968-.703125 2.726563 1 4.859375 3.136719 5.851563 5.863281l.578125 1.59375c.867187 2.382812 1.757812 4.835938 2.65625 7.347656l9.035156 27.542969c3.8125 13.21875 7.25 28.15625 9.515625 45.355469h-17.765625c-.570312-7.347656-2.515625-19.6875-8.386719-38.054688-1.257812-3.941406-5.476562-6.117187-9.417969-4.855468-3.945312 1.261718-6.117187 5.476562-4.859374 9.421874 5.214843 16.308594 7.011718 27.210938 7.605468 33.488282h-1.824218c-5.789063-27.613282-25.886719-45.664063-45.367188-63.15625-9.277344-8.328125-18.035156-16.195313-25.242188-24.980469-23.890624-29.128906-36.519531-63.457031-36.519531-99.273437 0-32.511719 9.71875-63.78125 28.105469-90.433594 17.964844-26.046875 42.929688-46 72.191406-57.699219 3.84375-1.535156 5.710938-5.898437 4.175782-9.742187-1.539063-3.84375-5.898438-5.714844-9.742188-4.175782-32.011719 12.800782-59.316406 34.621094-78.964844 63.105469-20.117187 29.167969-30.753906 63.382813-30.753906 98.945313 0 39.324218 13.804688 76.9375 39.921875 108.777343 7.929687 9.671875 17.53125 18.292969 26.8125 26.628907 18.449219 16.566406 35.9375 32.28125 40.734375 55.226562-5.800781 3.675781-9.671875 10.136719-9.671875 17.5v15.371094c0 4.871094 1.699219 9.34375 4.523437 12.886718-2.824218 3.542969-4.523437 8.015626-4.523437 12.886719v15.371094c0 9.382813 6.273437 17.320313 14.839844 19.863281v4.089844c0 26.988281 21.957031 48.941406 48.941406 48.941406h25.765625c26.984375 0 48.941406-21.953125 48.941406-48.941406v-4.089844c8.566406-2.542968 14.839844-10.480468 14.839844-19.863281v-15.371094c0-4.871093-1.699219-9.34375-4.523438-12.886719 2.824219-3.542968 4.523438-8.015624 4.523438-12.886718v-15.371094c0-7.375-3.882812-13.847656-9.707031-17.519531 4.628906-23.488281 20.460937-37.019531 38.609375-52.519531 9.234375-7.882813 18.78125-16.039063 27.140625-25.945313 26.925781-31.917969 41.753906-71.75 41.753906-112.148437-.003906-96.199219-78.265625-174.460938-174.464844-174.460938zm27.203125 316.535156 8.6875-26.472656c.046875-.144531.082032-.292969.121094-.441406.980469-2.742188 1.949219-5.40625 2.890625-7.996094l.578125-1.59375c.988281-2.726562 3.121094-4.863281 5.851562-5.863281 2.738282-1.003907 5.761719-.746094 8.292969.703125 4.359375 2.5 6.140625 7.851562 4.140625 12.445312-10.445312 24.023438-17.390625 45.015625-20.632812 62.398438-.933594 4.996094-1.421875 9.027344-1.664063 12.15625h-17.773437c2.261718-17.191406 5.699218-32.117188 9.507812-45.335938zm-46.53125-24.667968c8.703125-1.632813 23.65625-3.265626 38.453125.601562-1.589843 4.617188-3.1875 9.464844-4.742187 14.566406h-28.761719c-1.625-5.324218-3.292969-10.367187-4.949219-15.167968zm29.488282 30.15625c-3.046876 11.867187-5.71875 25.042968-7.574219 39.84375h-5.171875c-1.851563-14.800782-4.523438-27.976563-7.574219-39.84375zm36.675781 141.039062c0 18.71875-15.230469 33.949219-33.949219 33.949219h-25.769531c-18.71875 0-33.949219-15.230469-33.949219-33.949219v-3.230469h93.667969zm14.839843-23.957031c0 3.164062-2.570312 5.738281-5.734374 5.738281h-111.882813c-3.160156 0-5.734375-2.574219-5.734375-5.738281v-15.367188c0-2.304687 1.367188-4.289062 3.332031-5.203125.789063.09375 1.589844.152344 2.402344.152344h111.882813c.8125 0 1.613281-.058594 2.402343-.152344 1.964844.910156 3.332031 2.898438 3.332031 5.203125zm0-41.140625c0 2.304687-1.367187 4.289062-3.332031 5.199218-.789062-.089843-1.585937-.148437-2.402343-.148437h-111.882813c-.8125 0-1.613281.058594-2.402344.148437-1.960937-.910156-3.332031-2.894531-3.332031-5.199218v-15.371094c0-3.164062 2.574219-5.734375 5.738281-5.734375h111.878907c3.164062 0 5.738281 2.570313 5.738281 5.734375v15.371094zm0 0"></path></svg>